<svg width="60" height="60" viewBox="0 0 60 60" fill="none" xmlns="http://www.w3.org/2000/svg">
<circle cx="30" cy="30" r="30" fill="black"/>
<path d="M18 44.12C16.56 44.12 15.3467 43.8533 14.36 43.32C13.4 42.7867 12.68 42.08 12.2 41.2C11.72 40.32 11.48 39.36 11.48 38.32C11.48 37.2533 11.7333 36.1733 12.24 35.08C12.72 33.96 13.4533 32.9467 14.44 32.04C16.36 30.2533 18.5067 28.9467 20.88 28.12C23.28 27.2667 25.84 26.7333 28.56 26.52C28.7467 25.1067 28.8533 23.8267 28.88 22.68C28.9333 21.5067 28.96 20.5467 28.96 19.8C27.92 20.7067 26.68 21.4933 25.24 22.16C23.8267 22.8 22.3733 23.2933 20.88 23.64C19.4133 23.9867 18.04 24.16 16.76 24.16C15.0533 24.16 13.7733 23.7867 12.92 23.04C12.04 22.2933 11.6 21.4267 11.6 20.44C11.6 19.64 11.8933 18.8533 12.48 18.08C13.04 17.3067 13.8933 16.6667 15.04 16.16C16.1867 15.6533 17.6133 15.4 19.32 15.4C20.5733 15.4 21.6933 15.5333 22.68 15.8C23.6933 16.0667 24.4533 16.3467 24.96 16.64C25.2267 16.8 25.36 16.9333 25.36 17.04C25.36 17.2 25.2 17.28 24.88 17.28C24.7467 17.28 24.64 17.2667 24.56 17.24C23.9733 17.08 23.24 16.96 22.36 16.88C21.48 16.7733 20.76 16.72 20.2 16.72C18.2533 16.72 16.8 17.1067 15.84 17.88C14.88 18.6533 14.4 19.4667 14.4 20.32C14.4 21.0133 14.72 21.6267 15.36 22.16C16 22.6933 16.9467 22.96 18.2 22.96C19.5867 22.96 20.96 22.76 22.32 22.36C23.7067 21.9333 24.9733 21.4267 26.12 20.84C27.2933 20.2533 28.24 19.6933 28.96 19.16C28.9333 18.84 28.9067 18.4667 28.88 18.04C28.88 17.5867 28.88 17.1067 28.88 16.6C28.88 15.9067 28.9333 15.2267 29.04 14.56C29.1467 13.8667 29.3467 13.3067 29.64 12.88C29.9333 12.4267 30.3733 12.2 30.96 12.2C31.4133 12.2 31.7467 12.3733 31.96 12.72C32.1733 13.0667 32.28 13.5067 32.28 14.04C32.28 14.8667 32.0533 15.7733 31.6 16.76C31.1467 17.7467 30.56 18.5067 29.84 19.04C29.8933 19.5467 29.9867 20.4667 30.12 21.8C30.28 23.1333 30.3733 24.6667 30.4 26.4C30.9067 26.3733 31.4133 26.36 31.92 26.36C32.4533 26.3333 32.9733 26.32 33.48 26.32C33.9333 26.32 34.4 26.3333 34.88 26.36C35.3867 26.36 35.88 26.3733 36.36 26.4C37.0533 26.4267 37.76 26.4667 38.48 26.52C39.2 26.5467 39.8933 26.5733 40.56 26.6C40.64 25.1067 40.7467 23.5333 40.88 21.88C41.04 20.2267 41.2133 18.6133 41.4 17.04C41.6133 15.44 41.84 14 42.08 12.72C42.1067 12.64 42.1867 12.6 42.32 12.6C42.4533 12.5733 42.52 12.56 42.52 12.56C43.2133 12.56 43.8133 12.6533 44.32 12.84C44.8267 13 45.08 13.28 45.08 13.68C45 14.1067 44.8533 14.9733 44.64 16.28C44.4267 17.56 44.2 19.1067 43.96 20.92C43.72 22.7333 43.52 24.6267 43.36 26.6C44.0267 26.6 44.52 26.5333 44.84 26.4C45.08 26.2933 45.28 26.24 45.44 26.24C45.6 26.24 45.68 26.3067 45.68 26.44C45.68 26.6267 45.56 26.8133 45.32 27C44.8933 27.2933 44.2133 27.48 43.28 27.56C43.2267 28.2267 43.16 29.1067 43.08 30.2C43 31.2933 42.96 32.4267 42.96 33.6C42.96 34.7733 43.0267 35.9067 43.16 37C43.2933 38.0933 43.52 38.9867 43.84 39.68C44.1867 40.3733 44.6667 40.72 45.28 40.72C45.5467 40.72 45.8267 40.6 46.12 40.36C46.4133 40.12 46.5867 39.9067 46.64 39.72C46.72 39.5067 46.8133 39.4 46.92 39.4C47.08 39.4 47.16 39.5467 47.16 39.84V39.88C47.16 40.52 46.92 41 46.44 41.32C45.96 41.6667 45.3867 41.84 44.72 41.84C43.8133 41.84 43.0667 41.5467 42.48 40.96C41.92 40.4 41.48 39.64 41.16 38.68C40.8667 37.6933 40.6533 36.6 40.52 35.4C40.4133 34.2 40.36 32.9867 40.36 31.76C40.36 30.2933 40.4 28.9467 40.48 27.72C39.76 27.72 39 27.7067 38.2 27.68C37.4267 27.6533 36.6533 27.64 35.88 27.64C35 27.64 34.0933 27.6533 33.16 27.68C32.2533 27.68 31.3333 27.7067 30.4 27.76C30.3733 29.3867 30.2133 31.04 29.92 32.72C29.6533 34.3733 29.1733 35.8933 28.48 37.28C27.84 38.56 26.9867 39.72 25.92 40.76C24.88 41.8 23.68 42.6133 22.32 43.2C20.9867 43.8133 19.5467 44.12 18 44.12ZM16.72 43.04C18.16 43.04 19.4667 42.6667 20.64 41.92C21.84 41.2 22.9067 40.24 23.84 39.04C24.7733 37.84 25.5733 36.5333 26.24 35.12C26.7733 34 27.2133 32.8267 27.56 31.6C27.9067 30.3467 28.1733 29.1333 28.36 27.96C26.1467 28.2 24 28.68 21.92 29.4C19.84 30.12 18.0133 31.28 16.44 32.88C16.0133 33.3067 15.5733 33.92 15.12 34.72C14.6667 35.52 14.28 36.3867 13.96 37.32C13.6667 38.2267 13.52 39.0933 13.52 39.92C13.52 40.8 13.76 41.5333 14.24 42.12C14.72 42.7333 15.5467 43.04 16.72 43.04Z" fill="white"/>
</svg>
